G04 #@! TF.GenerationSoftware,KiCad,Pcbnew,(5.0.0)*
G04 #@! TF.CreationDate,2019-01-04T13:23:02+05:30*
G04 #@! TF.ProjectId,new,6E65772E6B696361645F706362000000,rev?*
G04 #@! TF.SameCoordinates,Original*
G04 #@! TF.FileFunction,Soldermask,Bot*
G04 #@! TF.FilePolarity,Negative*
%FSLAX46Y46*%
G04 Gerber Fmt 4.6, Leading zero omitted, Abs format (unit mm)*
G04 Created by KiCad (PCBNEW (5.0.0)) date 01/04/19 13:23:02*
%MOMM*%
%LPD*%
G01*
G04 APERTURE LIST*
%ADD10C,3.200000*%
%ADD11R,3.200000X3.200000*%
%ADD12O,2.100000X2.100000*%
%ADD13R,2.100000X2.100000*%
%ADD14C,2.000000*%
%ADD15C,1.800000*%
%ADD16O,1.800000X1.800000*%
%ADD17R,2.000000X2.000000*%
%ADD18O,2.000000X2.000000*%
%ADD19C,1.900000*%
%ADD20O,2.600000X2.600000*%
%ADD21R,2.600000X2.600000*%
%ADD22C,3.000000*%
%ADD23R,3.000000X3.000000*%
%ADD24C,3.400000*%
%ADD25C,2.900000*%
G04 APERTURE END LIST*
D10*
G04 #@! TO.C,ESC1*
X121840000Y-44450000D03*
D11*
X116840000Y-44450000D03*
G04 #@! TD*
D10*
G04 #@! TO.C,ESC2*
X110410000Y-44450000D03*
D11*
X105410000Y-44450000D03*
G04 #@! TD*
D12*
G04 #@! TO.C,Q4*
X134366000Y-125730000D03*
X134366000Y-123190000D03*
D13*
X134366000Y-120650000D03*
G04 #@! TD*
D12*
G04 #@! TO.C,Q3*
X133858000Y-104140000D03*
X133858000Y-101600000D03*
D13*
X133858000Y-99060000D03*
G04 #@! TD*
D12*
G04 #@! TO.C,Q2*
X133604000Y-82296000D03*
X133604000Y-79756000D03*
D13*
X133604000Y-77216000D03*
G04 #@! TD*
D12*
G04 #@! TO.C,Q1*
X133604000Y-61722000D03*
X133604000Y-59182000D03*
D13*
X133604000Y-56642000D03*
G04 #@! TD*
D12*
G04 #@! TO.C,VR2*
X144145000Y-43815000D03*
X141605000Y-43815000D03*
D13*
X139065000Y-43815000D03*
G04 #@! TD*
D12*
G04 #@! TO.C,VR1*
X109220000Y-53340000D03*
X106680000Y-53340000D03*
D13*
X104140000Y-53340000D03*
G04 #@! TD*
D12*
G04 #@! TO.C,RPM1*
X82550000Y-115570000D03*
X82550000Y-113030000D03*
D13*
X82550000Y-110490000D03*
G04 #@! TD*
D12*
G04 #@! TO.C,PortC1*
X119380000Y-82550000D03*
D13*
X119380000Y-85090000D03*
G04 #@! TD*
D12*
G04 #@! TO.C,PortD1*
X82550000Y-102870000D03*
X82550000Y-100330000D03*
X82550000Y-97790000D03*
X82550000Y-95250000D03*
D13*
X82550000Y-92710000D03*
G04 #@! TD*
D12*
G04 #@! TO.C,BLUETOOTH*
X104140000Y-127000000D03*
X101600000Y-127000000D03*
X99060000Y-127000000D03*
X96520000Y-127000000D03*
X93980000Y-127000000D03*
D13*
X91440000Y-127000000D03*
G04 #@! TD*
D12*
G04 #@! TO.C,RPM2*
X82550000Y-128270000D03*
X82550000Y-125730000D03*
D13*
X82550000Y-123190000D03*
G04 #@! TD*
D12*
G04 #@! TO.C,MPU6050*
X82550000Y-86360000D03*
X82550000Y-83820000D03*
X82550000Y-81280000D03*
X82550000Y-78740000D03*
D13*
X82550000Y-76200000D03*
G04 #@! TD*
D12*
G04 #@! TO.C,BATTERY1*
X86360000Y-43180000D03*
D13*
X83820000Y-43180000D03*
G04 #@! TD*
D14*
G04 #@! TO.C,C1.0*
X95250000Y-49570000D03*
X95250000Y-52070000D03*
G04 #@! TD*
G04 #@! TO.C,C1.1*
X93980000Y-44450000D03*
X93980000Y-41950000D03*
G04 #@! TD*
G04 #@! TO.C,C3*
X91440000Y-114340000D03*
X91440000Y-116840000D03*
G04 #@! TD*
G04 #@! TO.C,C4*
X96520000Y-116840000D03*
X96520000Y-114340000D03*
G04 #@! TD*
D15*
G04 #@! TO.C,R1*
X93980000Y-58420000D03*
D16*
X93980000Y-60960000D03*
G04 #@! TD*
D17*
G04 #@! TO.C,RESET*
X90170000Y-50800000D03*
D18*
X82550000Y-50800000D03*
G04 #@! TD*
D17*
G04 #@! TO.C,U2*
X104140000Y-77470000D03*
D18*
X111760000Y-110490000D03*
X104140000Y-80010000D03*
X111760000Y-107950000D03*
X104140000Y-82550000D03*
X111760000Y-105410000D03*
X104140000Y-85090000D03*
X111760000Y-102870000D03*
X104140000Y-87630000D03*
X111760000Y-100330000D03*
X104140000Y-90170000D03*
X111760000Y-97790000D03*
X104140000Y-92710000D03*
X111760000Y-95250000D03*
X104140000Y-95250000D03*
X111760000Y-92710000D03*
X104140000Y-97790000D03*
X111760000Y-90170000D03*
X104140000Y-100330000D03*
X111760000Y-87630000D03*
X104140000Y-102870000D03*
X111760000Y-85090000D03*
X104140000Y-105410000D03*
X111760000Y-82550000D03*
X104140000Y-107950000D03*
X111760000Y-80010000D03*
X104140000Y-110490000D03*
X111760000Y-77470000D03*
G04 #@! TD*
D19*
G04 #@! TO.C,Y1*
X91440000Y-107950000D03*
X96340000Y-107950000D03*
G04 #@! TD*
D13*
G04 #@! TO.C,USB*
X82550000Y-57150000D03*
D12*
X82550000Y-59690000D03*
X82550000Y-62230000D03*
X82550000Y-64770000D03*
X82550000Y-67310000D03*
G04 #@! TD*
D13*
G04 #@! TO.C,BATTERY2*
X130810000Y-43815000D03*
D12*
X128270000Y-43815000D03*
G04 #@! TD*
D14*
G04 #@! TO.C,C2.1*
X125494897Y-49354250D03*
X127994897Y-49354250D03*
G04 #@! TD*
G04 #@! TO.C,C2.0*
X135382000Y-49784000D03*
X132882000Y-49784000D03*
G04 #@! TD*
D20*
G04 #@! TO.C,D1*
X140208000Y-54102000D03*
D21*
X140208000Y-64262000D03*
G04 #@! TD*
G04 #@! TO.C,D2*
X140462000Y-84582000D03*
D20*
X140462000Y-74422000D03*
G04 #@! TD*
G04 #@! TO.C,D3*
X140589000Y-96520000D03*
D21*
X140589000Y-106680000D03*
G04 #@! TD*
G04 #@! TO.C,D4*
X140970000Y-128524000D03*
D20*
X140970000Y-118364000D03*
G04 #@! TD*
D22*
G04 #@! TO.C,TERMINAL1*
X176022000Y-63340000D03*
X176022000Y-58340000D03*
D23*
X176022000Y-53340000D03*
G04 #@! TD*
G04 #@! TO.C,TERMINAL2*
X176022000Y-73914000D03*
D22*
X176022000Y-78914000D03*
X176022000Y-83914000D03*
G04 #@! TD*
G04 #@! TO.C,TERMINAL3*
X176022000Y-106266000D03*
X176022000Y-101266000D03*
D23*
X176022000Y-96266000D03*
G04 #@! TD*
G04 #@! TO.C,TERMINAL4*
X176022000Y-117602000D03*
D22*
X176022000Y-122602000D03*
X176022000Y-127602000D03*
G04 #@! TD*
D24*
G04 #@! TO.C,RELAY1*
X163502000Y-58628000D03*
D25*
X161552000Y-64578000D03*
D24*
X149302000Y-64628000D03*
X149352000Y-52578000D03*
D25*
X161552000Y-52578000D03*
G04 #@! TD*
D24*
G04 #@! TO.C,RELAY2*
X164592000Y-78486000D03*
D25*
X162642000Y-84436000D03*
D24*
X150392000Y-84486000D03*
X150442000Y-72436000D03*
D25*
X162642000Y-72436000D03*
G04 #@! TD*
G04 #@! TO.C,RELAY3*
X162769000Y-95550000D03*
D24*
X150569000Y-95550000D03*
X150519000Y-107600000D03*
D25*
X162769000Y-107550000D03*
D24*
X164719000Y-101600000D03*
G04 #@! TD*
D25*
G04 #@! TO.C,RELAY4*
X162896000Y-116378000D03*
D24*
X150696000Y-116378000D03*
X150646000Y-128428000D03*
D25*
X162896000Y-128378000D03*
D24*
X164846000Y-122428000D03*
G04 #@! TD*
D15*
G04 #@! TO.C,R11*
X127000000Y-56515000D03*
D16*
X127000000Y-59055000D03*
G04 #@! TD*
D15*
G04 #@! TO.C,R22*
X127000000Y-79248000D03*
D16*
X127000000Y-81788000D03*
G04 #@! TD*
G04 #@! TO.C,R33*
X127635000Y-102870000D03*
D15*
X127635000Y-100330000D03*
G04 #@! TD*
D16*
G04 #@! TO.C,R44*
X127762000Y-125222000D03*
D15*
X127762000Y-122682000D03*
G04 #@! TD*
M02*
