G04 #@! TF.GenerationSoftware,KiCad,Pcbnew,(5.0.0)*
G04 #@! TF.CreationDate,2019-01-04T13:23:02+05:30*
G04 #@! TF.ProjectId,new,6E65772E6B696361645F706362000000,rev?*
G04 #@! TF.SameCoordinates,Original*
G04 #@! TF.FileFunction,Copper,L1,Top,Signal*
G04 #@! TF.FilePolarity,Positive*
%FSLAX46Y46*%
G04 Gerber Fmt 4.6, Leading zero omitted, Abs format (unit mm)*
G04 Created by KiCad (PCBNEW (5.0.0)) date 01/04/19 13:23:02*
%MOMM*%
%LPD*%
G01*
G04 APERTURE LIST*
G04 #@! TA.AperFunction,NonConductor*
%ADD10C,0.750000*%
G04 #@! TD*
G04 #@! TA.AperFunction,ComponentPad*
%ADD11C,2.800000*%
G04 #@! TD*
G04 #@! TA.AperFunction,ComponentPad*
%ADD12R,2.800000X2.800000*%
G04 #@! TD*
G04 #@! TA.AperFunction,ComponentPad*
%ADD13O,1.700000X1.700000*%
G04 #@! TD*
G04 #@! TA.AperFunction,ComponentPad*
%ADD14R,1.700000X1.700000*%
G04 #@! TD*
G04 #@! TA.AperFunction,ComponentPad*
%ADD15C,1.600000*%
G04 #@! TD*
G04 #@! TA.AperFunction,ComponentPad*
%ADD16C,1.400000*%
G04 #@! TD*
G04 #@! TA.AperFunction,ComponentPad*
%ADD17O,1.400000X1.400000*%
G04 #@! TD*
G04 #@! TA.AperFunction,ComponentPad*
%ADD18R,1.600000X1.600000*%
G04 #@! TD*
G04 #@! TA.AperFunction,ComponentPad*
%ADD19O,1.600000X1.600000*%
G04 #@! TD*
G04 #@! TA.AperFunction,ComponentPad*
%ADD20C,1.500000*%
G04 #@! TD*
G04 #@! TA.AperFunction,ComponentPad*
%ADD21O,2.200000X2.200000*%
G04 #@! TD*
G04 #@! TA.AperFunction,ComponentPad*
%ADD22R,2.200000X2.200000*%
G04 #@! TD*
G04 #@! TA.AperFunction,ComponentPad*
%ADD23C,2.600000*%
G04 #@! TD*
G04 #@! TA.AperFunction,ComponentPad*
%ADD24R,2.600000X2.600000*%
G04 #@! TD*
G04 #@! TA.AperFunction,ComponentPad*
%ADD25C,3.000000*%
G04 #@! TD*
G04 #@! TA.AperFunction,ComponentPad*
%ADD26C,2.500000*%
G04 #@! TD*
G04 #@! TA.AperFunction,ViaPad*
%ADD27C,1.400000*%
G04 #@! TD*
G04 #@! TA.AperFunction,Conductor*
%ADD28C,0.500000*%
G04 #@! TD*
G04 #@! TA.AperFunction,Conductor*
%ADD29C,0.800000*%
G04 #@! TD*
G04 APERTURE END LIST*
D10*
X163410000Y-41537142D02*
X165124285Y-41537142D01*
X164267142Y-44537142D02*
X164267142Y-41537142D01*
X167838571Y-44537142D02*
X166838571Y-43108571D01*
X166124285Y-44537142D02*
X166124285Y-41537142D01*
X167267142Y-41537142D01*
X167552857Y-41680000D01*
X167695714Y-41822857D01*
X167838571Y-42108571D01*
X167838571Y-42537142D01*
X167695714Y-42822857D01*
X167552857Y-42965714D01*
X167267142Y-43108571D01*
X166124285Y-43108571D01*
X169124285Y-44537142D02*
X169124285Y-41537142D01*
X170124285Y-43680000D01*
X171124285Y-41537142D01*
X171124285Y-44537142D01*
X172410000Y-44394285D02*
X172838571Y-44537142D01*
X173552857Y-44537142D01*
X173838571Y-44394285D01*
X173981428Y-44251428D01*
X174124285Y-43965714D01*
X174124285Y-43680000D01*
X173981428Y-43394285D01*
X173838571Y-43251428D01*
X173552857Y-43108571D01*
X172981428Y-42965714D01*
X172695714Y-42822857D01*
X172552857Y-42680000D01*
X172410000Y-42394285D01*
X172410000Y-42108571D01*
X172552857Y-41822857D01*
X172695714Y-41680000D01*
X172981428Y-41537142D01*
X173695714Y-41537142D01*
X174124285Y-41680000D01*
D11*
G04 #@! TO.P,ESC1,2*
G04 #@! TO.N,Net-(J3-Pad2)*
X121840000Y-44450000D03*
D12*
G04 #@! TO.P,ESC1,1*
G04 #@! TO.N,GND*
X116840000Y-44450000D03*
G04 #@! TD*
D11*
G04 #@! TO.P,ESC2,2*
G04 #@! TO.N,Net-(J4-Pad2)*
X110410000Y-44450000D03*
D12*
G04 #@! TO.P,ESC2,1*
G04 #@! TO.N,GND*
X105410000Y-44450000D03*
G04 #@! TD*
D13*
G04 #@! TO.P,Q4,3*
G04 #@! TO.N,Net-(BT2-Pad2)*
X134366000Y-125730000D03*
G04 #@! TO.P,Q4,2*
G04 #@! TO.N,Net-(Q4-Pad2)*
X134366000Y-123190000D03*
D14*
G04 #@! TO.P,Q4,1*
G04 #@! TO.N,Net-(D4-Pad2)*
X134366000Y-120650000D03*
G04 #@! TD*
D13*
G04 #@! TO.P,Q3,3*
G04 #@! TO.N,Net-(BT2-Pad2)*
X133858000Y-104140000D03*
G04 #@! TO.P,Q3,2*
G04 #@! TO.N,Net-(Q3-Pad2)*
X133858000Y-101600000D03*
D14*
G04 #@! TO.P,Q3,1*
G04 #@! TO.N,Net-(D3-Pad2)*
X133858000Y-99060000D03*
G04 #@! TD*
D13*
G04 #@! TO.P,Q2,3*
G04 #@! TO.N,Net-(BT2-Pad2)*
X133604000Y-82296000D03*
G04 #@! TO.P,Q2,2*
G04 #@! TO.N,Net-(Q2-Pad2)*
X133604000Y-79756000D03*
D14*
G04 #@! TO.P,Q2,1*
G04 #@! TO.N,Net-(D2-Pad2)*
X133604000Y-77216000D03*
G04 #@! TD*
D13*
G04 #@! TO.P,Q1,3*
G04 #@! TO.N,Net-(BT2-Pad2)*
X133604000Y-61722000D03*
G04 #@! TO.P,Q1,2*
G04 #@! TO.N,Net-(Q1-Pad2)*
X133604000Y-59182000D03*
D14*
G04 #@! TO.P,Q1,1*
G04 #@! TO.N,Net-(D1-Pad2)*
X133604000Y-56642000D03*
G04 #@! TD*
D13*
G04 #@! TO.P,VR2,3*
G04 #@! TO.N,Net-(C2.1-Pad1)*
X144145000Y-43815000D03*
G04 #@! TO.P,VR2,2*
G04 #@! TO.N,Net-(BT2-Pad2)*
X141605000Y-43815000D03*
D14*
G04 #@! TO.P,VR2,1*
G04 #@! TO.N,Net-(BT2-Pad1)*
X139065000Y-43815000D03*
G04 #@! TD*
D13*
G04 #@! TO.P,VR1,3*
G04 #@! TO.N,Net-(.1-Pad2)*
X109220000Y-53340000D03*
G04 #@! TO.P,VR1,2*
G04 #@! TO.N,GND*
X106680000Y-53340000D03*
D14*
G04 #@! TO.P,VR1,1*
G04 #@! TO.N,Net-(BT1-Pad1)*
X104140000Y-53340000D03*
G04 #@! TD*
D13*
G04 #@! TO.P,RPM1,3*
G04 #@! TO.N,Net-(J1-Pad3)*
X82550000Y-115570000D03*
G04 #@! TO.P,RPM1,2*
G04 #@! TO.N,GND*
X82550000Y-113030000D03*
D14*
G04 #@! TO.P,RPM1,1*
G04 #@! TO.N,Net-(.1-Pad2)*
X82550000Y-110490000D03*
G04 #@! TD*
D13*
G04 #@! TO.P,PortC1,2*
G04 #@! TO.N,Net-(PortC1-Pad2)*
X119380000Y-82550000D03*
D14*
G04 #@! TO.P,PortC1,1*
G04 #@! TO.N,Net-(PortC1-Pad1)*
X119380000Y-85090000D03*
G04 #@! TD*
D13*
G04 #@! TO.P,PortD1,5*
G04 #@! TO.N,Net-(PortD1-Pad5)*
X82550000Y-102870000D03*
G04 #@! TO.P,PortD1,4*
G04 #@! TO.N,Net-(PortD1-Pad4)*
X82550000Y-100330000D03*
G04 #@! TO.P,PortD1,3*
G04 #@! TO.N,Net-(PortD1-Pad3)*
X82550000Y-97790000D03*
G04 #@! TO.P,PortD1,2*
G04 #@! TO.N,Net-(PortD1-Pad2)*
X82550000Y-95250000D03*
D14*
G04 #@! TO.P,PortD1,1*
G04 #@! TO.N,Net-(PortD1-Pad1)*
X82550000Y-92710000D03*
G04 #@! TD*
D13*
G04 #@! TO.P,BLUETOOTH,6*
G04 #@! TO.N,Net-(J6-Pad6)*
X104140000Y-127000000D03*
G04 #@! TO.P,BLUETOOTH,5*
G04 #@! TO.N,Net-(J6-Pad5)*
X101600000Y-127000000D03*
G04 #@! TO.P,BLUETOOTH,4*
G04 #@! TO.N,Net-(J6-Pad4)*
X99060000Y-127000000D03*
G04 #@! TO.P,BLUETOOTH,3*
G04 #@! TO.N,GND*
X96520000Y-127000000D03*
G04 #@! TO.P,BLUETOOTH,2*
G04 #@! TO.N,Net-(.1-Pad2)*
X93980000Y-127000000D03*
D14*
G04 #@! TO.P,BLUETOOTH,1*
G04 #@! TO.N,Net-(J6-Pad1)*
X91440000Y-127000000D03*
G04 #@! TD*
D13*
G04 #@! TO.P,RPM2,3*
G04 #@! TO.N,Net-(J2-Pad3)*
X82550000Y-128270000D03*
G04 #@! TO.P,RPM2,2*
G04 #@! TO.N,GND*
X82550000Y-125730000D03*
D14*
G04 #@! TO.P,RPM2,1*
G04 #@! TO.N,Net-(.1-Pad2)*
X82550000Y-123190000D03*
G04 #@! TD*
D13*
G04 #@! TO.P,MPU6050,5*
G04 #@! TO.N,Net-(MPU6050-Pad5)*
X82550000Y-86360000D03*
G04 #@! TO.P,MPU6050,4*
G04 #@! TO.N,Net-(MPU6050-Pad4)*
X82550000Y-83820000D03*
G04 #@! TO.P,MPU6050,3*
G04 #@! TO.N,Net-(MPU6050-Pad3)*
X82550000Y-81280000D03*
G04 #@! TO.P,MPU6050,2*
G04 #@! TO.N,GND*
X82550000Y-78740000D03*
D14*
G04 #@! TO.P,MPU6050,1*
G04 #@! TO.N,Net-(.1-Pad2)*
X82550000Y-76200000D03*
G04 #@! TD*
D13*
G04 #@! TO.P,BATTERY1,2*
G04 #@! TO.N,GND*
X86360000Y-43180000D03*
D14*
G04 #@! TO.P,BATTERY1,1*
G04 #@! TO.N,Net-(BT1-Pad1)*
X83820000Y-43180000D03*
G04 #@! TD*
D15*
G04 #@! TO.P,C1.0,2*
G04 #@! TO.N,GND*
X95250000Y-49570000D03*
G04 #@! TO.P,C1.0,1*
G04 #@! TO.N,Net-(BT1-Pad1)*
X95250000Y-52070000D03*
G04 #@! TD*
G04 #@! TO.P,C1.1,1*
G04 #@! TO.N,Net-(.1-Pad2)*
X93980000Y-44450000D03*
G04 #@! TO.P,C1.1,2*
G04 #@! TO.N,GND*
X93980000Y-41950000D03*
G04 #@! TD*
G04 #@! TO.P,C3,2*
G04 #@! TO.N,Net-(C3-Pad2)*
X91440000Y-114340000D03*
G04 #@! TO.P,C3,1*
G04 #@! TO.N,GND*
X91440000Y-116840000D03*
G04 #@! TD*
G04 #@! TO.P,C4,1*
G04 #@! TO.N,GND*
X96520000Y-116840000D03*
G04 #@! TO.P,C4,2*
G04 #@! TO.N,Net-(C4-Pad2)*
X96520000Y-114340000D03*
G04 #@! TD*
D16*
G04 #@! TO.P,R1,1*
G04 #@! TO.N,Net-(.1-Pad5)*
X93980000Y-58420000D03*
D17*
G04 #@! TO.P,R1,2*
G04 #@! TO.N,Net-(.1-Pad2)*
X93980000Y-60960000D03*
G04 #@! TD*
D18*
G04 #@! TO.P,RESET,1*
G04 #@! TO.N,Net-(.1-Pad5)*
X90170000Y-50800000D03*
D19*
G04 #@! TO.P,RESET,2*
G04 #@! TO.N,GND*
X82550000Y-50800000D03*
G04 #@! TD*
D18*
G04 #@! TO.P,U2,1*
G04 #@! TO.N,Net-(.1-Pad5)*
X104140000Y-77470000D03*
D19*
G04 #@! TO.P,U2,15*
G04 #@! TO.N,Net-(R33-Pad1)*
X111760000Y-110490000D03*
G04 #@! TO.P,U2,2*
G04 #@! TO.N,Net-(.1-Pad3)*
X104140000Y-80010000D03*
G04 #@! TO.P,U2,16*
G04 #@! TO.N,Net-(J6-Pad4)*
X111760000Y-107950000D03*
G04 #@! TO.P,U2,3*
G04 #@! TO.N,Net-(.1-Pad4)*
X104140000Y-82550000D03*
G04 #@! TO.P,U2,17*
G04 #@! TO.N,Net-(J6-Pad5)*
X111760000Y-105410000D03*
G04 #@! TO.P,U2,4*
G04 #@! TO.N,Net-(MPU6050-Pad5)*
X104140000Y-85090000D03*
G04 #@! TO.P,U2,18*
G04 #@! TO.N,Net-(J3-Pad2)*
X111760000Y-102870000D03*
G04 #@! TO.P,U2,5*
G04 #@! TO.N,Net-(PortD1-Pad1)*
X104140000Y-87630000D03*
G04 #@! TO.P,U2,19*
G04 #@! TO.N,Net-(J4-Pad2)*
X111760000Y-100330000D03*
G04 #@! TO.P,U2,6*
G04 #@! TO.N,Net-(PortD1-Pad2)*
X104140000Y-90170000D03*
G04 #@! TO.P,U2,20*
G04 #@! TO.N,Net-(.1-Pad2)*
X111760000Y-97790000D03*
G04 #@! TO.P,U2,7*
X104140000Y-92710000D03*
G04 #@! TO.P,U2,21*
X111760000Y-95250000D03*
G04 #@! TO.P,U2,8*
G04 #@! TO.N,GND*
X104140000Y-95250000D03*
G04 #@! TO.P,U2,22*
X111760000Y-92710000D03*
G04 #@! TO.P,U2,9*
G04 #@! TO.N,Net-(C3-Pad2)*
X104140000Y-97790000D03*
G04 #@! TO.P,U2,23*
G04 #@! TO.N,Net-(J1-Pad3)*
X111760000Y-90170000D03*
G04 #@! TO.P,U2,10*
G04 #@! TO.N,Net-(C4-Pad2)*
X104140000Y-100330000D03*
G04 #@! TO.P,U2,24*
G04 #@! TO.N,Net-(J2-Pad3)*
X111760000Y-87630000D03*
G04 #@! TO.P,U2,11*
G04 #@! TO.N,Net-(PortD1-Pad3)*
X104140000Y-102870000D03*
G04 #@! TO.P,U2,25*
G04 #@! TO.N,Net-(PortC1-Pad1)*
X111760000Y-85090000D03*
G04 #@! TO.P,U2,12*
G04 #@! TO.N,Net-(PortD1-Pad4)*
X104140000Y-105410000D03*
G04 #@! TO.P,U2,26*
G04 #@! TO.N,Net-(PortC1-Pad2)*
X111760000Y-82550000D03*
G04 #@! TO.P,U2,13*
G04 #@! TO.N,Net-(PortD1-Pad5)*
X104140000Y-107950000D03*
G04 #@! TO.P,U2,27*
G04 #@! TO.N,Net-(MPU6050-Pad4)*
X111760000Y-80010000D03*
G04 #@! TO.P,U2,14*
G04 #@! TO.N,Net-(R11-Pad1)*
X104140000Y-110490000D03*
G04 #@! TO.P,U2,28*
G04 #@! TO.N,Net-(MPU6050-Pad3)*
X111760000Y-77470000D03*
G04 #@! TD*
D20*
G04 #@! TO.P,Y1,1*
G04 #@! TO.N,Net-(C3-Pad2)*
X91440000Y-107950000D03*
G04 #@! TO.P,Y1,2*
G04 #@! TO.N,Net-(C4-Pad2)*
X96340000Y-107950000D03*
G04 #@! TD*
D14*
G04 #@! TO.P,USB,1*
G04 #@! TO.N,GND*
X82550000Y-57150000D03*
D13*
G04 #@! TO.P,USB,2*
G04 #@! TO.N,Net-(.1-Pad2)*
X82550000Y-59690000D03*
G04 #@! TO.P,USB,3*
G04 #@! TO.N,Net-(.1-Pad3)*
X82550000Y-62230000D03*
G04 #@! TO.P,USB,4*
G04 #@! TO.N,Net-(.1-Pad4)*
X82550000Y-64770000D03*
G04 #@! TO.P,USB,5*
G04 #@! TO.N,Net-(.1-Pad5)*
X82550000Y-67310000D03*
G04 #@! TD*
D14*
G04 #@! TO.P,BATTERY2,1*
G04 #@! TO.N,Net-(BT2-Pad1)*
X130810000Y-43815000D03*
D13*
G04 #@! TO.P,BATTERY2,2*
G04 #@! TO.N,Net-(BT2-Pad2)*
X128270000Y-43815000D03*
G04 #@! TD*
D15*
G04 #@! TO.P,C2.1,2*
G04 #@! TO.N,Net-(BT2-Pad2)*
X125494897Y-49354250D03*
G04 #@! TO.P,C2.1,1*
G04 #@! TO.N,Net-(C2.1-Pad1)*
X127994897Y-49354250D03*
G04 #@! TD*
G04 #@! TO.P,C2.0,1*
G04 #@! TO.N,Net-(BT2-Pad1)*
X135382000Y-49784000D03*
G04 #@! TO.P,C2.0,2*
G04 #@! TO.N,Net-(BT2-Pad2)*
X132882000Y-49784000D03*
G04 #@! TD*
D21*
G04 #@! TO.P,D1,2*
G04 #@! TO.N,Net-(D1-Pad2)*
X140208000Y-54102000D03*
D22*
G04 #@! TO.P,D1,1*
G04 #@! TO.N,Net-(C2.1-Pad1)*
X140208000Y-64262000D03*
G04 #@! TD*
G04 #@! TO.P,D2,1*
G04 #@! TO.N,Net-(C2.1-Pad1)*
X140462000Y-84582000D03*
D21*
G04 #@! TO.P,D2,2*
G04 #@! TO.N,Net-(D2-Pad2)*
X140462000Y-74422000D03*
G04 #@! TD*
G04 #@! TO.P,D3,2*
G04 #@! TO.N,Net-(D3-Pad2)*
X140589000Y-96520000D03*
D22*
G04 #@! TO.P,D3,1*
G04 #@! TO.N,Net-(C2.1-Pad1)*
X140589000Y-106680000D03*
G04 #@! TD*
G04 #@! TO.P,D4,1*
G04 #@! TO.N,Net-(C2.1-Pad1)*
X140970000Y-128524000D03*
D21*
G04 #@! TO.P,D4,2*
G04 #@! TO.N,Net-(D4-Pad2)*
X140970000Y-118364000D03*
G04 #@! TD*
D23*
G04 #@! TO.P,TERMINAL1,3*
G04 #@! TO.N,Net-(J5-Pad3)*
X176022000Y-63340000D03*
G04 #@! TO.P,TERMINAL1,2*
G04 #@! TO.N,Net-(J5-Pad2)*
X176022000Y-58340000D03*
D24*
G04 #@! TO.P,TERMINAL1,1*
G04 #@! TO.N,Net-(J5-Pad1)*
X176022000Y-53340000D03*
G04 #@! TD*
G04 #@! TO.P,TERMINAL2,1*
G04 #@! TO.N,Net-(J7-Pad1)*
X176022000Y-73914000D03*
D23*
G04 #@! TO.P,TERMINAL2,2*
G04 #@! TO.N,Net-(J7-Pad2)*
X176022000Y-78914000D03*
G04 #@! TO.P,TERMINAL2,3*
G04 #@! TO.N,Net-(J7-Pad3)*
X176022000Y-83914000D03*
G04 #@! TD*
G04 #@! TO.P,TERMINAL3,3*
G04 #@! TO.N,Net-(J8-Pad3)*
X176022000Y-106266000D03*
G04 #@! TO.P,TERMINAL3,2*
G04 #@! TO.N,Net-(J8-Pad2)*
X176022000Y-101266000D03*
D24*
G04 #@! TO.P,TERMINAL3,1*
G04 #@! TO.N,Net-(J8-Pad1)*
X176022000Y-96266000D03*
G04 #@! TD*
G04 #@! TO.P,TERMINAL4,1*
G04 #@! TO.N,Net-(J9-Pad1)*
X176022000Y-117602000D03*
D23*
G04 #@! TO.P,TERMINAL4,2*
G04 #@! TO.N,Net-(J9-Pad2)*
X176022000Y-122602000D03*
G04 #@! TO.P,TERMINAL4,3*
G04 #@! TO.N,Net-(J9-Pad3)*
X176022000Y-127602000D03*
G04 #@! TD*
D25*
G04 #@! TO.P,RELAY1,1*
G04 #@! TO.N,Net-(J5-Pad2)*
X163502000Y-58628000D03*
D26*
G04 #@! TO.P,RELAY1,5*
G04 #@! TO.N,Net-(C2.1-Pad1)*
X161552000Y-64578000D03*
D25*
G04 #@! TO.P,RELAY1,4*
G04 #@! TO.N,Net-(J5-Pad3)*
X149302000Y-64628000D03*
G04 #@! TO.P,RELAY1,3*
G04 #@! TO.N,Net-(J5-Pad1)*
X149352000Y-52578000D03*
D26*
G04 #@! TO.P,RELAY1,2*
G04 #@! TO.N,Net-(D1-Pad2)*
X161552000Y-52578000D03*
G04 #@! TD*
D25*
G04 #@! TO.P,RELAY2,1*
G04 #@! TO.N,Net-(J7-Pad2)*
X164592000Y-78486000D03*
D26*
G04 #@! TO.P,RELAY2,5*
G04 #@! TO.N,Net-(C2.1-Pad1)*
X162642000Y-84436000D03*
D25*
G04 #@! TO.P,RELAY2,4*
G04 #@! TO.N,Net-(J7-Pad3)*
X150392000Y-84486000D03*
G04 #@! TO.P,RELAY2,3*
G04 #@! TO.N,Net-(J7-Pad1)*
X150442000Y-72436000D03*
D26*
G04 #@! TO.P,RELAY2,2*
G04 #@! TO.N,Net-(D2-Pad2)*
X162642000Y-72436000D03*
G04 #@! TD*
G04 #@! TO.P,RELAY3,2*
G04 #@! TO.N,Net-(D3-Pad2)*
X162769000Y-95550000D03*
D25*
G04 #@! TO.P,RELAY3,3*
G04 #@! TO.N,Net-(J8-Pad1)*
X150569000Y-95550000D03*
G04 #@! TO.P,RELAY3,4*
G04 #@! TO.N,Net-(J8-Pad3)*
X150519000Y-107600000D03*
D26*
G04 #@! TO.P,RELAY3,5*
G04 #@! TO.N,Net-(C2.1-Pad1)*
X162769000Y-107550000D03*
D25*
G04 #@! TO.P,RELAY3,1*
G04 #@! TO.N,Net-(J8-Pad2)*
X164719000Y-101600000D03*
G04 #@! TD*
D26*
G04 #@! TO.P,RELAY4,2*
G04 #@! TO.N,Net-(D4-Pad2)*
X162896000Y-116378000D03*
D25*
G04 #@! TO.P,RELAY4,3*
G04 #@! TO.N,Net-(J9-Pad1)*
X150696000Y-116378000D03*
G04 #@! TO.P,RELAY4,4*
G04 #@! TO.N,Net-(J9-Pad3)*
X150646000Y-128428000D03*
D26*
G04 #@! TO.P,RELAY4,5*
G04 #@! TO.N,Net-(C2.1-Pad1)*
X162896000Y-128378000D03*
D25*
G04 #@! TO.P,RELAY4,1*
G04 #@! TO.N,Net-(J9-Pad2)*
X164846000Y-122428000D03*
G04 #@! TD*
D16*
G04 #@! TO.P,R11,1*
G04 #@! TO.N,Net-(R11-Pad1)*
X127000000Y-56515000D03*
D17*
G04 #@! TO.P,R11,2*
G04 #@! TO.N,Net-(Q1-Pad2)*
X127000000Y-59055000D03*
G04 #@! TD*
D16*
G04 #@! TO.P,R22,1*
G04 #@! TO.N,Net-(R11-Pad1)*
X127000000Y-79248000D03*
D17*
G04 #@! TO.P,R22,2*
G04 #@! TO.N,Net-(Q2-Pad2)*
X127000000Y-81788000D03*
G04 #@! TD*
G04 #@! TO.P,R33,2*
G04 #@! TO.N,Net-(Q3-Pad2)*
X127635000Y-102870000D03*
D16*
G04 #@! TO.P,R33,1*
G04 #@! TO.N,Net-(R33-Pad1)*
X127635000Y-100330000D03*
G04 #@! TD*
D17*
G04 #@! TO.P,R44,2*
G04 #@! TO.N,Net-(Q4-Pad2)*
X127762000Y-125222000D03*
D16*
G04 #@! TO.P,R44,1*
G04 #@! TO.N,Net-(R33-Pad1)*
X127762000Y-122682000D03*
G04 #@! TD*
D27*
G04 #@! TO.N,Net-(J1-Pad3)*
X113030000Y-119380000D03*
G04 #@! TO.N,Net-(MPU6050-Pad4)*
X100330000Y-73660000D03*
G04 #@! TO.N,Net-(MPU6050-Pad3)*
X97790000Y-73660000D03*
G04 #@! TO.N,Net-(R11-Pad1)*
X123190000Y-114300000D03*
G04 #@! TD*
D28*
G04 #@! TO.N,*
X76200000Y-36195000D02*
X184150000Y-36195000D01*
X76200000Y-133985000D02*
X76200000Y-36195000D01*
X184150000Y-36195000D02*
X184150000Y-133985000D01*
X184150000Y-133985000D02*
X76200000Y-133985000D01*
D29*
G04 #@! TO.N,GND*
X91440000Y-116840000D02*
X96520000Y-116840000D01*
X86360000Y-46990000D02*
X86360000Y-43180000D01*
X82550000Y-50800000D02*
X86360000Y-46990000D01*
X82550000Y-50800000D02*
X82550000Y-57150000D01*
X82550000Y-57150000D02*
X80900000Y-57150000D01*
X80900000Y-57150000D02*
X80010000Y-57150000D01*
X82550000Y-78740000D02*
X80010000Y-78740000D01*
X80010000Y-77470000D02*
X80010000Y-78740000D01*
X80010000Y-57150000D02*
X80010000Y-77470000D01*
X104140000Y-95250000D02*
X106680000Y-95250000D01*
X106680000Y-95250000D02*
X109220000Y-92710000D01*
X109220000Y-92710000D02*
X111760000Y-92710000D01*
X91440000Y-118042081D02*
X91440000Y-117971370D01*
X83752081Y-125730000D02*
X91440000Y-118042081D01*
X91440000Y-117971370D02*
X91440000Y-116840000D01*
X82550000Y-125730000D02*
X83752081Y-125730000D01*
X96520000Y-127000000D02*
X96520000Y-116840000D01*
X106680000Y-99060000D02*
X106680000Y-95250000D01*
X106680000Y-114300000D02*
X106680000Y-99060000D01*
X104140000Y-116840000D02*
X106680000Y-114300000D01*
X96520000Y-116840000D02*
X104140000Y-116840000D01*
X82550000Y-113030000D02*
X86741000Y-113030000D01*
X86741000Y-113030000D02*
X86741000Y-116840000D01*
X86741000Y-116840000D02*
X91440000Y-116840000D01*
X87590000Y-41950000D02*
X86360000Y-43180000D01*
X93980000Y-41950000D02*
X87590000Y-41950000D01*
X95111370Y-41950000D02*
X93980000Y-41950000D01*
X100710000Y-41950000D02*
X95111370Y-41950000D01*
X103210000Y-44450000D02*
X100710000Y-41950000D01*
X105410000Y-44450000D02*
X103210000Y-44450000D01*
G04 #@! TO.N,Net-(BT2-Pad2)*
X128270000Y-43815000D02*
X125603000Y-43815000D01*
X125494897Y-43923103D02*
X125494897Y-49354250D01*
X125603000Y-43815000D02*
X125494897Y-43923103D01*
X125494897Y-50485620D02*
X125476000Y-50504517D01*
X125494897Y-49354250D02*
X125494897Y-50485620D01*
X125476000Y-50504517D02*
X125476000Y-52070000D01*
X130596000Y-52070000D02*
X132882000Y-49784000D01*
X125476000Y-52070000D02*
X130596000Y-52070000D01*
X132882000Y-49784000D02*
X136184000Y-46482000D01*
X141605000Y-45017081D02*
X141605000Y-43815000D01*
X140140081Y-46482000D02*
X141605000Y-45017081D01*
X136184000Y-46482000D02*
X140140081Y-46482000D01*
G04 #@! TO.N,Net-(.1-Pad2)*
X93980000Y-44450000D02*
X97790000Y-44450000D01*
X100330000Y-95250000D02*
X102870000Y-92710000D01*
X91440000Y-95250000D02*
X100330000Y-95250000D01*
X90170000Y-96520000D02*
X91440000Y-95250000D01*
X90170000Y-101220000D02*
X90170000Y-96520000D01*
X82550000Y-108840000D02*
X90170000Y-101220000D01*
X102870000Y-92710000D02*
X104140000Y-92710000D01*
X82550000Y-110490000D02*
X82550000Y-108840000D01*
X80010000Y-123190000D02*
X82550000Y-123190000D01*
X80010000Y-111380000D02*
X80010000Y-123190000D01*
X80900000Y-110490000D02*
X80010000Y-111380000D01*
X82550000Y-110490000D02*
X80900000Y-110490000D01*
X93980000Y-61949949D02*
X93980000Y-60960000D01*
X93980000Y-66420000D02*
X93980000Y-61949949D01*
X84200000Y-76200000D02*
X93980000Y-66420000D01*
X82550000Y-76200000D02*
X84200000Y-76200000D01*
X109220000Y-52137919D02*
X107247081Y-50165000D01*
X109220000Y-53340000D02*
X109220000Y-52137919D01*
X103505000Y-50165000D02*
X97790000Y-44450000D01*
X107247081Y-50165000D02*
X103505000Y-50165000D01*
X111760000Y-95250000D02*
X111760000Y-97790000D01*
G04 #@! TO.N,Net-(C2.1-Pad1)*
X144145000Y-40767000D02*
X144145000Y-43815000D01*
X128794896Y-48554251D02*
X130769749Y-48554251D01*
X127994897Y-49354250D02*
X128794896Y-48554251D01*
X130769749Y-48554251D02*
X135128000Y-44196000D01*
X135128000Y-44196000D02*
X135128000Y-40640000D01*
X135128000Y-40640000D02*
X144018000Y-40640000D01*
X144018000Y-40640000D02*
X144145000Y-40767000D01*
X142108000Y-64262000D02*
X145410000Y-60960000D01*
X140208000Y-64262000D02*
X142108000Y-64262000D01*
X157934000Y-60960000D02*
X161552000Y-64578000D01*
X145410000Y-60960000D02*
X157934000Y-60960000D01*
X159740000Y-125222000D02*
X162896000Y-128378000D01*
X142372000Y-125222000D02*
X159740000Y-125222000D01*
X140970000Y-128524000D02*
X140970000Y-126624000D01*
X140970000Y-126624000D02*
X142372000Y-125222000D01*
X141097000Y-65151000D02*
X140208000Y-64262000D01*
X140462000Y-82682000D02*
X142626000Y-80518000D01*
X140462000Y-84582000D02*
X140462000Y-82682000D01*
X158724000Y-80518000D02*
X162642000Y-84436000D01*
X142626000Y-80518000D02*
X158724000Y-80518000D01*
X140589000Y-104780000D02*
X141864000Y-103505000D01*
X140589000Y-106680000D02*
X140589000Y-104780000D01*
X158724000Y-103505000D02*
X162769000Y-107550000D01*
X141864000Y-103505000D02*
X158724000Y-103505000D01*
G04 #@! TO.N,Net-(C3-Pad2)*
X101600000Y-97790000D02*
X104140000Y-97790000D01*
X91440000Y-107950000D02*
X101600000Y-97790000D01*
X91440000Y-114340000D02*
X91440000Y-107950000D01*
G04 #@! TO.N,Net-(C4-Pad2)*
X96340000Y-107950000D02*
X96340000Y-106860000D01*
X102870000Y-100330000D02*
X104140000Y-100330000D01*
X96340000Y-106860000D02*
X102870000Y-100330000D01*
X96520000Y-108130000D02*
X96340000Y-107950000D01*
X96520000Y-114340000D02*
X96520000Y-108130000D01*
G04 #@! TO.N,Net-(D1-Pad2)*
X137668000Y-56642000D02*
X140208000Y-54102000D01*
X133604000Y-56642000D02*
X137668000Y-56642000D01*
X160302001Y-53827999D02*
X161552000Y-52578000D01*
X158928001Y-55201999D02*
X160302001Y-53827999D01*
X141307999Y-55201999D02*
X158928001Y-55201999D01*
X140208000Y-54102000D02*
X141307999Y-55201999D01*
G04 #@! TO.N,Net-(D2-Pad2)*
X142494000Y-76454000D02*
X140462000Y-74422000D01*
X162642000Y-72436000D02*
X158624000Y-76454000D01*
X158624000Y-76454000D02*
X142494000Y-76454000D01*
X137668000Y-77216000D02*
X140462000Y-74422000D01*
X133604000Y-77216000D02*
X137668000Y-77216000D01*
G04 #@! TO.N,Net-(D3-Pad2)*
X140589000Y-98075634D02*
X141573366Y-99060000D01*
X140589000Y-96520000D02*
X140589000Y-98075634D01*
X159259000Y-99060000D02*
X162769000Y-95550000D01*
X141573366Y-99060000D02*
X159259000Y-99060000D01*
X138049000Y-99060000D02*
X140589000Y-96520000D01*
X133858000Y-99060000D02*
X138049000Y-99060000D01*
G04 #@! TO.N,Net-(D4-Pad2)*
X161646001Y-117627999D02*
X162896000Y-116378000D01*
X159810001Y-119463999D02*
X161646001Y-117627999D01*
X142069999Y-119463999D02*
X159810001Y-119463999D01*
X140970000Y-118364000D02*
X142069999Y-119463999D01*
X138684000Y-120650000D02*
X140970000Y-118364000D01*
X134366000Y-120650000D02*
X138684000Y-120650000D01*
G04 #@! TO.N,Net-(J1-Pad3)*
X113030000Y-119380000D02*
X118110000Y-114300000D01*
X118110000Y-114300000D02*
X118110000Y-90170000D01*
X118110000Y-90170000D02*
X111760000Y-90170000D01*
G04 #@! TO.N,Net-(J2-Pad3)*
X82550000Y-128270000D02*
X82550000Y-130810000D01*
X120650000Y-130810000D02*
X107442000Y-130810000D01*
X111760000Y-87630000D02*
X120650000Y-87630000D01*
X107442000Y-130810000D02*
X108077000Y-130810000D01*
X120650000Y-87630000D02*
X120650000Y-130810000D01*
X82550000Y-130810000D02*
X107442000Y-130810000D01*
G04 #@! TO.N,Net-(J5-Pad1)*
X170434000Y-53340000D02*
X176022000Y-53340000D01*
X166878000Y-49784000D02*
X170434000Y-53340000D01*
X149352000Y-52578000D02*
X152146000Y-49784000D01*
X152146000Y-49784000D02*
X166878000Y-49784000D01*
G04 #@! TO.N,Net-(J5-Pad2)*
X175734000Y-58628000D02*
X176022000Y-58340000D01*
X163502000Y-58628000D02*
X175734000Y-58628000D01*
G04 #@! TO.N,Net-(J5-Pad3)*
X171102000Y-63340000D02*
X176022000Y-63340000D01*
X166878000Y-67564000D02*
X171102000Y-63340000D01*
X149302000Y-64628000D02*
X152238000Y-67564000D01*
X152238000Y-67564000D02*
X166878000Y-67564000D01*
G04 #@! TO.N,Net-(J6-Pad4)*
X99060000Y-124460000D02*
X99060000Y-127000000D01*
X109093000Y-107950000D02*
X109093000Y-114427000D01*
X109093000Y-114427000D02*
X99060000Y-124460000D01*
X111760000Y-107950000D02*
X109093000Y-107950000D01*
G04 #@! TO.N,Net-(J6-Pad5)*
X114427000Y-114173000D02*
X101600000Y-127000000D01*
X114427000Y-105537000D02*
X114427000Y-114173000D01*
X114300000Y-105410000D02*
X114427000Y-105537000D01*
X111760000Y-105410000D02*
X114300000Y-105410000D01*
G04 #@! TO.N,Net-(J7-Pad3)*
X171544000Y-83914000D02*
X176022000Y-83914000D01*
X171450000Y-83820000D02*
X171544000Y-83914000D01*
X168148000Y-87122000D02*
X171450000Y-83820000D01*
X150392000Y-84486000D02*
X153028000Y-87122000D01*
X153028000Y-87122000D02*
X168148000Y-87122000D01*
G04 #@! TO.N,Net-(J7-Pad2)*
X175594000Y-78486000D02*
X176022000Y-78914000D01*
X164592000Y-78486000D02*
X175594000Y-78486000D01*
G04 #@! TO.N,Net-(J7-Pad1)*
X152563320Y-72436000D02*
X154895320Y-70104000D01*
X150442000Y-72436000D02*
X152563320Y-72436000D01*
X154895320Y-70104000D02*
X167640000Y-70104000D01*
X171450000Y-73914000D02*
X176022000Y-73914000D01*
X167640000Y-70104000D02*
X171450000Y-73914000D01*
G04 #@! TO.N,Net-(J8-Pad1)*
X150569000Y-95550000D02*
X153663000Y-92456000D01*
X153663000Y-92456000D02*
X167640000Y-92456000D01*
X171450000Y-96266000D02*
X176022000Y-96266000D01*
X167640000Y-92456000D02*
X171450000Y-96266000D01*
G04 #@! TO.N,Net-(J8-Pad2)*
X175688000Y-101600000D02*
X176022000Y-101266000D01*
X164719000Y-101600000D02*
X175688000Y-101600000D01*
G04 #@! TO.N,Net-(J8-Pad3)*
X171798000Y-110490000D02*
X176022000Y-106266000D01*
X151287680Y-110490000D02*
X171798000Y-110490000D01*
X150519000Y-107600000D02*
X150519000Y-109721320D01*
X150519000Y-109721320D02*
X151287680Y-110490000D01*
G04 #@! TO.N,Net-(J9-Pad3)*
X172560000Y-131064000D02*
X176022000Y-127602000D01*
X151160680Y-131064000D02*
X172560000Y-131064000D01*
X150646000Y-128428000D02*
X150646000Y-130549320D01*
X150646000Y-130549320D02*
X151160680Y-131064000D01*
G04 #@! TO.N,Net-(J9-Pad2)*
X175848000Y-122428000D02*
X176022000Y-122602000D01*
X164846000Y-122428000D02*
X175848000Y-122428000D01*
G04 #@! TO.N,Net-(J9-Pad1)*
X150696000Y-116378000D02*
X153282000Y-113792000D01*
X153282000Y-113792000D02*
X169926000Y-113792000D01*
X173736000Y-117602000D02*
X176022000Y-117602000D01*
X169926000Y-113792000D02*
X173736000Y-117602000D01*
G04 #@! TO.N,Net-(MPU6050-Pad5)*
X102870000Y-86360000D02*
X104140000Y-85090000D01*
X82550000Y-86360000D02*
X102870000Y-86360000D01*
G04 #@! TO.N,Net-(MPU6050-Pad4)*
X82550000Y-83820000D02*
X95250000Y-83820000D01*
X95250000Y-83820000D02*
X100330000Y-78740000D01*
X100330000Y-78740000D02*
X100330000Y-76200000D01*
X100330000Y-76200000D02*
X100330000Y-73660000D01*
X100330000Y-73660000D02*
X100330000Y-73660000D01*
G04 #@! TO.N,Net-(MPU6050-Pad3)*
X82550000Y-81280000D02*
X93980000Y-81280000D01*
X93980000Y-81280000D02*
X96520000Y-78740000D01*
X96520000Y-78740000D02*
X97790000Y-77470000D01*
X97790000Y-77470000D02*
X97790000Y-77325773D01*
X97790000Y-77325773D02*
X97790000Y-73660000D01*
X97790000Y-73660000D02*
X97790000Y-73660000D01*
G04 #@! TO.N,Net-(PortC1-Pad1)*
X111760000Y-85090000D02*
X119380000Y-85090000D01*
G04 #@! TO.N,Net-(PortC1-Pad2)*
X111760000Y-82550000D02*
X119380000Y-82550000D01*
G04 #@! TO.N,Net-(PortD1-Pad1)*
X84200000Y-92710000D02*
X88010000Y-88900000D01*
X82550000Y-92710000D02*
X84200000Y-92710000D01*
X88010000Y-88900000D02*
X101600000Y-88900000D01*
X101600000Y-88900000D02*
X102870000Y-87630000D01*
X102870000Y-87630000D02*
X104140000Y-87630000D01*
G04 #@! TO.N,Net-(PortD1-Pad2)*
X82550000Y-95250000D02*
X86360000Y-95250000D01*
X86360000Y-95250000D02*
X90170000Y-91440000D01*
X90170000Y-91440000D02*
X101600000Y-91440000D01*
X101600000Y-91440000D02*
X102870000Y-90170000D01*
X102870000Y-90170000D02*
X104140000Y-90170000D01*
G04 #@! TO.N,Net-(Q1-Pad2)*
X133477000Y-59055000D02*
X133604000Y-59182000D01*
X127000000Y-59055000D02*
X133477000Y-59055000D01*
G04 #@! TO.N,Net-(Q2-Pad2)*
X130302000Y-79756000D02*
X133604000Y-79756000D01*
X127000000Y-81788000D02*
X128270000Y-81788000D01*
X128270000Y-81788000D02*
X130302000Y-79756000D01*
G04 #@! TO.N,Net-(Q3-Pad2)*
X127635000Y-102870000D02*
X129794000Y-102870000D01*
X131064000Y-101600000D02*
X133858000Y-101600000D01*
X129794000Y-102870000D02*
X131064000Y-101600000D01*
G04 #@! TO.N,Net-(Q4-Pad2)*
X127762000Y-125222000D02*
X128778000Y-125222000D01*
X128778000Y-125222000D02*
X130810000Y-123190000D01*
X130810000Y-123190000D02*
X134366000Y-123190000D01*
G04 #@! TO.N,Net-(.1-Pad5)*
X104140000Y-68580000D02*
X104140000Y-77470000D01*
X93980000Y-58420000D02*
X104140000Y-68580000D01*
X90170000Y-54610000D02*
X93980000Y-58420000D01*
X90170000Y-50800000D02*
X90170000Y-54610000D01*
X87503000Y-66929000D02*
X87503000Y-57277000D01*
X87503000Y-57277000D02*
X90170000Y-54610000D01*
X87122000Y-67310000D02*
X87503000Y-66929000D01*
X82550000Y-67310000D02*
X87122000Y-67310000D01*
G04 #@! TO.N,Net-(R11-Pad1)*
X123190000Y-113734315D02*
X123190000Y-114300000D01*
X123190000Y-82068051D02*
X123190000Y-113734315D01*
X126010051Y-79248000D02*
X123190000Y-82068051D01*
X127000000Y-79248000D02*
X126010051Y-79248000D01*
X124460000Y-76708000D02*
X127000000Y-79248000D01*
X124460000Y-58065051D02*
X124460000Y-76708000D01*
X127000000Y-56515000D02*
X126010051Y-56515000D01*
X126010051Y-56515000D02*
X124460000Y-58065051D01*
G04 #@! TD*
M02*
