G04 #@! TF.GenerationSoftware,KiCad,Pcbnew,(5.0.0)*
G04 #@! TF.CreationDate,2019-01-04T13:23:02+05:30*
G04 #@! TF.ProjectId,new,6E65772E6B696361645F706362000000,rev?*
G04 #@! TF.SameCoordinates,Original*
G04 #@! TF.FileFunction,Copper,L2,Bot,Signal*
G04 #@! TF.FilePolarity,Positive*
%FSLAX46Y46*%
G04 Gerber Fmt 4.6, Leading zero omitted, Abs format (unit mm)*
G04 Created by KiCad (PCBNEW (5.0.0)) date 01/04/19 13:23:02*
%MOMM*%
%LPD*%
G01*
G04 APERTURE LIST*
G04 #@! TA.AperFunction,ComponentPad*
%ADD10C,2.800000*%
G04 #@! TD*
G04 #@! TA.AperFunction,ComponentPad*
%ADD11R,2.800000X2.800000*%
G04 #@! TD*
G04 #@! TA.AperFunction,ComponentPad*
%ADD12O,1.700000X1.700000*%
G04 #@! TD*
G04 #@! TA.AperFunction,ComponentPad*
%ADD13R,1.700000X1.700000*%
G04 #@! TD*
G04 #@! TA.AperFunction,ComponentPad*
%ADD14C,1.600000*%
G04 #@! TD*
G04 #@! TA.AperFunction,ComponentPad*
%ADD15C,1.400000*%
G04 #@! TD*
G04 #@! TA.AperFunction,ComponentPad*
%ADD16O,1.400000X1.400000*%
G04 #@! TD*
G04 #@! TA.AperFunction,ComponentPad*
%ADD17R,1.600000X1.600000*%
G04 #@! TD*
G04 #@! TA.AperFunction,ComponentPad*
%ADD18O,1.600000X1.600000*%
G04 #@! TD*
G04 #@! TA.AperFunction,ComponentPad*
%ADD19C,1.500000*%
G04 #@! TD*
G04 #@! TA.AperFunction,ComponentPad*
%ADD20O,2.200000X2.200000*%
G04 #@! TD*
G04 #@! TA.AperFunction,ComponentPad*
%ADD21R,2.200000X2.200000*%
G04 #@! TD*
G04 #@! TA.AperFunction,ComponentPad*
%ADD22C,2.600000*%
G04 #@! TD*
G04 #@! TA.AperFunction,ComponentPad*
%ADD23R,2.600000X2.600000*%
G04 #@! TD*
G04 #@! TA.AperFunction,ComponentPad*
%ADD24C,3.000000*%
G04 #@! TD*
G04 #@! TA.AperFunction,ComponentPad*
%ADD25C,2.500000*%
G04 #@! TD*
G04 #@! TA.AperFunction,ViaPad*
%ADD26C,1.400000*%
G04 #@! TD*
G04 #@! TA.AperFunction,Conductor*
%ADD27C,0.800000*%
G04 #@! TD*
G04 APERTURE END LIST*
D10*
G04 #@! TO.P,ESC1,2*
G04 #@! TO.N,Net-(J3-Pad2)*
X121840000Y-44450000D03*
D11*
G04 #@! TO.P,ESC1,1*
G04 #@! TO.N,GND*
X116840000Y-44450000D03*
G04 #@! TD*
D10*
G04 #@! TO.P,ESC2,2*
G04 #@! TO.N,Net-(J4-Pad2)*
X110410000Y-44450000D03*
D11*
G04 #@! TO.P,ESC2,1*
G04 #@! TO.N,GND*
X105410000Y-44450000D03*
G04 #@! TD*
D12*
G04 #@! TO.P,Q4,3*
G04 #@! TO.N,Net-(BT2-Pad2)*
X134366000Y-125730000D03*
G04 #@! TO.P,Q4,2*
G04 #@! TO.N,Net-(Q4-Pad2)*
X134366000Y-123190000D03*
D13*
G04 #@! TO.P,Q4,1*
G04 #@! TO.N,Net-(D4-Pad2)*
X134366000Y-120650000D03*
G04 #@! TD*
D12*
G04 #@! TO.P,Q3,3*
G04 #@! TO.N,Net-(BT2-Pad2)*
X133858000Y-104140000D03*
G04 #@! TO.P,Q3,2*
G04 #@! TO.N,Net-(Q3-Pad2)*
X133858000Y-101600000D03*
D13*
G04 #@! TO.P,Q3,1*
G04 #@! TO.N,Net-(D3-Pad2)*
X133858000Y-99060000D03*
G04 #@! TD*
D12*
G04 #@! TO.P,Q2,3*
G04 #@! TO.N,Net-(BT2-Pad2)*
X133604000Y-82296000D03*
G04 #@! TO.P,Q2,2*
G04 #@! TO.N,Net-(Q2-Pad2)*
X133604000Y-79756000D03*
D13*
G04 #@! TO.P,Q2,1*
G04 #@! TO.N,Net-(D2-Pad2)*
X133604000Y-77216000D03*
G04 #@! TD*
D12*
G04 #@! TO.P,Q1,3*
G04 #@! TO.N,Net-(BT2-Pad2)*
X133604000Y-61722000D03*
G04 #@! TO.P,Q1,2*
G04 #@! TO.N,Net-(Q1-Pad2)*
X133604000Y-59182000D03*
D13*
G04 #@! TO.P,Q1,1*
G04 #@! TO.N,Net-(D1-Pad2)*
X133604000Y-56642000D03*
G04 #@! TD*
D12*
G04 #@! TO.P,VR2,3*
G04 #@! TO.N,Net-(C2.1-Pad1)*
X144145000Y-43815000D03*
G04 #@! TO.P,VR2,2*
G04 #@! TO.N,Net-(BT2-Pad2)*
X141605000Y-43815000D03*
D13*
G04 #@! TO.P,VR2,1*
G04 #@! TO.N,Net-(BT2-Pad1)*
X139065000Y-43815000D03*
G04 #@! TD*
D12*
G04 #@! TO.P,VR1,3*
G04 #@! TO.N,Net-(.1-Pad2)*
X109220000Y-53340000D03*
G04 #@! TO.P,VR1,2*
G04 #@! TO.N,GND*
X106680000Y-53340000D03*
D13*
G04 #@! TO.P,VR1,1*
G04 #@! TO.N,Net-(BT1-Pad1)*
X104140000Y-53340000D03*
G04 #@! TD*
D12*
G04 #@! TO.P,RPM1,3*
G04 #@! TO.N,Net-(J1-Pad3)*
X82550000Y-115570000D03*
G04 #@! TO.P,RPM1,2*
G04 #@! TO.N,GND*
X82550000Y-113030000D03*
D13*
G04 #@! TO.P,RPM1,1*
G04 #@! TO.N,Net-(.1-Pad2)*
X82550000Y-110490000D03*
G04 #@! TD*
D12*
G04 #@! TO.P,PortC1,2*
G04 #@! TO.N,Net-(PortC1-Pad2)*
X119380000Y-82550000D03*
D13*
G04 #@! TO.P,PortC1,1*
G04 #@! TO.N,Net-(PortC1-Pad1)*
X119380000Y-85090000D03*
G04 #@! TD*
D12*
G04 #@! TO.P,PortD1,5*
G04 #@! TO.N,Net-(PortD1-Pad5)*
X82550000Y-102870000D03*
G04 #@! TO.P,PortD1,4*
G04 #@! TO.N,Net-(PortD1-Pad4)*
X82550000Y-100330000D03*
G04 #@! TO.P,PortD1,3*
G04 #@! TO.N,Net-(PortD1-Pad3)*
X82550000Y-97790000D03*
G04 #@! TO.P,PortD1,2*
G04 #@! TO.N,Net-(PortD1-Pad2)*
X82550000Y-95250000D03*
D13*
G04 #@! TO.P,PortD1,1*
G04 #@! TO.N,Net-(PortD1-Pad1)*
X82550000Y-92710000D03*
G04 #@! TD*
D12*
G04 #@! TO.P,BLUETOOTH,6*
G04 #@! TO.N,Net-(J6-Pad6)*
X104140000Y-127000000D03*
G04 #@! TO.P,BLUETOOTH,5*
G04 #@! TO.N,Net-(J6-Pad5)*
X101600000Y-127000000D03*
G04 #@! TO.P,BLUETOOTH,4*
G04 #@! TO.N,Net-(J6-Pad4)*
X99060000Y-127000000D03*
G04 #@! TO.P,BLUETOOTH,3*
G04 #@! TO.N,GND*
X96520000Y-127000000D03*
G04 #@! TO.P,BLUETOOTH,2*
G04 #@! TO.N,Net-(.1-Pad2)*
X93980000Y-127000000D03*
D13*
G04 #@! TO.P,BLUETOOTH,1*
G04 #@! TO.N,Net-(J6-Pad1)*
X91440000Y-127000000D03*
G04 #@! TD*
D12*
G04 #@! TO.P,RPM2,3*
G04 #@! TO.N,Net-(J2-Pad3)*
X82550000Y-128270000D03*
G04 #@! TO.P,RPM2,2*
G04 #@! TO.N,GND*
X82550000Y-125730000D03*
D13*
G04 #@! TO.P,RPM2,1*
G04 #@! TO.N,Net-(.1-Pad2)*
X82550000Y-123190000D03*
G04 #@! TD*
D12*
G04 #@! TO.P,MPU6050,5*
G04 #@! TO.N,Net-(MPU6050-Pad5)*
X82550000Y-86360000D03*
G04 #@! TO.P,MPU6050,4*
G04 #@! TO.N,Net-(MPU6050-Pad4)*
X82550000Y-83820000D03*
G04 #@! TO.P,MPU6050,3*
G04 #@! TO.N,Net-(MPU6050-Pad3)*
X82550000Y-81280000D03*
G04 #@! TO.P,MPU6050,2*
G04 #@! TO.N,GND*
X82550000Y-78740000D03*
D13*
G04 #@! TO.P,MPU6050,1*
G04 #@! TO.N,Net-(.1-Pad2)*
X82550000Y-76200000D03*
G04 #@! TD*
D12*
G04 #@! TO.P,BATTERY1,2*
G04 #@! TO.N,GND*
X86360000Y-43180000D03*
D13*
G04 #@! TO.P,BATTERY1,1*
G04 #@! TO.N,Net-(BT1-Pad1)*
X83820000Y-43180000D03*
G04 #@! TD*
D14*
G04 #@! TO.P,C1.0,2*
G04 #@! TO.N,GND*
X95250000Y-49570000D03*
G04 #@! TO.P,C1.0,1*
G04 #@! TO.N,Net-(BT1-Pad1)*
X95250000Y-52070000D03*
G04 #@! TD*
G04 #@! TO.P,C1.1,1*
G04 #@! TO.N,Net-(.1-Pad2)*
X93980000Y-44450000D03*
G04 #@! TO.P,C1.1,2*
G04 #@! TO.N,GND*
X93980000Y-41950000D03*
G04 #@! TD*
G04 #@! TO.P,C3,2*
G04 #@! TO.N,Net-(C3-Pad2)*
X91440000Y-114340000D03*
G04 #@! TO.P,C3,1*
G04 #@! TO.N,GND*
X91440000Y-116840000D03*
G04 #@! TD*
G04 #@! TO.P,C4,1*
G04 #@! TO.N,GND*
X96520000Y-116840000D03*
G04 #@! TO.P,C4,2*
G04 #@! TO.N,Net-(C4-Pad2)*
X96520000Y-114340000D03*
G04 #@! TD*
D15*
G04 #@! TO.P,R1,1*
G04 #@! TO.N,Net-(.1-Pad5)*
X93980000Y-58420000D03*
D16*
G04 #@! TO.P,R1,2*
G04 #@! TO.N,Net-(.1-Pad2)*
X93980000Y-60960000D03*
G04 #@! TD*
D17*
G04 #@! TO.P,RESET,1*
G04 #@! TO.N,Net-(.1-Pad5)*
X90170000Y-50800000D03*
D18*
G04 #@! TO.P,RESET,2*
G04 #@! TO.N,GND*
X82550000Y-50800000D03*
G04 #@! TD*
D17*
G04 #@! TO.P,U2,1*
G04 #@! TO.N,Net-(.1-Pad5)*
X104140000Y-77470000D03*
D18*
G04 #@! TO.P,U2,15*
G04 #@! TO.N,Net-(R33-Pad1)*
X111760000Y-110490000D03*
G04 #@! TO.P,U2,2*
G04 #@! TO.N,Net-(.1-Pad3)*
X104140000Y-80010000D03*
G04 #@! TO.P,U2,16*
G04 #@! TO.N,Net-(J6-Pad4)*
X111760000Y-107950000D03*
G04 #@! TO.P,U2,3*
G04 #@! TO.N,Net-(.1-Pad4)*
X104140000Y-82550000D03*
G04 #@! TO.P,U2,17*
G04 #@! TO.N,Net-(J6-Pad5)*
X111760000Y-105410000D03*
G04 #@! TO.P,U2,4*
G04 #@! TO.N,Net-(MPU6050-Pad5)*
X104140000Y-85090000D03*
G04 #@! TO.P,U2,18*
G04 #@! TO.N,Net-(J3-Pad2)*
X111760000Y-102870000D03*
G04 #@! TO.P,U2,5*
G04 #@! TO.N,Net-(PortD1-Pad1)*
X104140000Y-87630000D03*
G04 #@! TO.P,U2,19*
G04 #@! TO.N,Net-(J4-Pad2)*
X111760000Y-100330000D03*
G04 #@! TO.P,U2,6*
G04 #@! TO.N,Net-(PortD1-Pad2)*
X104140000Y-90170000D03*
G04 #@! TO.P,U2,20*
G04 #@! TO.N,Net-(.1-Pad2)*
X111760000Y-97790000D03*
G04 #@! TO.P,U2,7*
X104140000Y-92710000D03*
G04 #@! TO.P,U2,21*
X111760000Y-95250000D03*
G04 #@! TO.P,U2,8*
G04 #@! TO.N,GND*
X104140000Y-95250000D03*
G04 #@! TO.P,U2,22*
X111760000Y-92710000D03*
G04 #@! TO.P,U2,9*
G04 #@! TO.N,Net-(C3-Pad2)*
X104140000Y-97790000D03*
G04 #@! TO.P,U2,23*
G04 #@! TO.N,Net-(J1-Pad3)*
X111760000Y-90170000D03*
G04 #@! TO.P,U2,10*
G04 #@! TO.N,Net-(C4-Pad2)*
X104140000Y-100330000D03*
G04 #@! TO.P,U2,24*
G04 #@! TO.N,Net-(J2-Pad3)*
X111760000Y-87630000D03*
G04 #@! TO.P,U2,11*
G04 #@! TO.N,Net-(PortD1-Pad3)*
X104140000Y-102870000D03*
G04 #@! TO.P,U2,25*
G04 #@! TO.N,Net-(PortC1-Pad1)*
X111760000Y-85090000D03*
G04 #@! TO.P,U2,12*
G04 #@! TO.N,Net-(PortD1-Pad4)*
X104140000Y-105410000D03*
G04 #@! TO.P,U2,26*
G04 #@! TO.N,Net-(PortC1-Pad2)*
X111760000Y-82550000D03*
G04 #@! TO.P,U2,13*
G04 #@! TO.N,Net-(PortD1-Pad5)*
X104140000Y-107950000D03*
G04 #@! TO.P,U2,27*
G04 #@! TO.N,Net-(MPU6050-Pad4)*
X111760000Y-80010000D03*
G04 #@! TO.P,U2,14*
G04 #@! TO.N,Net-(R11-Pad1)*
X104140000Y-110490000D03*
G04 #@! TO.P,U2,28*
G04 #@! TO.N,Net-(MPU6050-Pad3)*
X111760000Y-77470000D03*
G04 #@! TD*
D19*
G04 #@! TO.P,Y1,1*
G04 #@! TO.N,Net-(C3-Pad2)*
X91440000Y-107950000D03*
G04 #@! TO.P,Y1,2*
G04 #@! TO.N,Net-(C4-Pad2)*
X96340000Y-107950000D03*
G04 #@! TD*
D13*
G04 #@! TO.P,USB,1*
G04 #@! TO.N,GND*
X82550000Y-57150000D03*
D12*
G04 #@! TO.P,USB,2*
G04 #@! TO.N,Net-(.1-Pad2)*
X82550000Y-59690000D03*
G04 #@! TO.P,USB,3*
G04 #@! TO.N,Net-(.1-Pad3)*
X82550000Y-62230000D03*
G04 #@! TO.P,USB,4*
G04 #@! TO.N,Net-(.1-Pad4)*
X82550000Y-64770000D03*
G04 #@! TO.P,USB,5*
G04 #@! TO.N,Net-(.1-Pad5)*
X82550000Y-67310000D03*
G04 #@! TD*
D13*
G04 #@! TO.P,BATTERY2,1*
G04 #@! TO.N,Net-(BT2-Pad1)*
X130810000Y-43815000D03*
D12*
G04 #@! TO.P,BATTERY2,2*
G04 #@! TO.N,Net-(BT2-Pad2)*
X128270000Y-43815000D03*
G04 #@! TD*
D14*
G04 #@! TO.P,C2.1,2*
G04 #@! TO.N,Net-(BT2-Pad2)*
X125494897Y-49354250D03*
G04 #@! TO.P,C2.1,1*
G04 #@! TO.N,Net-(C2.1-Pad1)*
X127994897Y-49354250D03*
G04 #@! TD*
G04 #@! TO.P,C2.0,1*
G04 #@! TO.N,Net-(BT2-Pad1)*
X135382000Y-49784000D03*
G04 #@! TO.P,C2.0,2*
G04 #@! TO.N,Net-(BT2-Pad2)*
X132882000Y-49784000D03*
G04 #@! TD*
D20*
G04 #@! TO.P,D1,2*
G04 #@! TO.N,Net-(D1-Pad2)*
X140208000Y-54102000D03*
D21*
G04 #@! TO.P,D1,1*
G04 #@! TO.N,Net-(C2.1-Pad1)*
X140208000Y-64262000D03*
G04 #@! TD*
G04 #@! TO.P,D2,1*
G04 #@! TO.N,Net-(C2.1-Pad1)*
X140462000Y-84582000D03*
D20*
G04 #@! TO.P,D2,2*
G04 #@! TO.N,Net-(D2-Pad2)*
X140462000Y-74422000D03*
G04 #@! TD*
G04 #@! TO.P,D3,2*
G04 #@! TO.N,Net-(D3-Pad2)*
X140589000Y-96520000D03*
D21*
G04 #@! TO.P,D3,1*
G04 #@! TO.N,Net-(C2.1-Pad1)*
X140589000Y-106680000D03*
G04 #@! TD*
G04 #@! TO.P,D4,1*
G04 #@! TO.N,Net-(C2.1-Pad1)*
X140970000Y-128524000D03*
D20*
G04 #@! TO.P,D4,2*
G04 #@! TO.N,Net-(D4-Pad2)*
X140970000Y-118364000D03*
G04 #@! TD*
D22*
G04 #@! TO.P,TERMINAL1,3*
G04 #@! TO.N,Net-(J5-Pad3)*
X176022000Y-63340000D03*
G04 #@! TO.P,TERMINAL1,2*
G04 #@! TO.N,Net-(J5-Pad2)*
X176022000Y-58340000D03*
D23*
G04 #@! TO.P,TERMINAL1,1*
G04 #@! TO.N,Net-(J5-Pad1)*
X176022000Y-53340000D03*
G04 #@! TD*
G04 #@! TO.P,TERMINAL2,1*
G04 #@! TO.N,Net-(J7-Pad1)*
X176022000Y-73914000D03*
D22*
G04 #@! TO.P,TERMINAL2,2*
G04 #@! TO.N,Net-(J7-Pad2)*
X176022000Y-78914000D03*
G04 #@! TO.P,TERMINAL2,3*
G04 #@! TO.N,Net-(J7-Pad3)*
X176022000Y-83914000D03*
G04 #@! TD*
G04 #@! TO.P,TERMINAL3,3*
G04 #@! TO.N,Net-(J8-Pad3)*
X176022000Y-106266000D03*
G04 #@! TO.P,TERMINAL3,2*
G04 #@! TO.N,Net-(J8-Pad2)*
X176022000Y-101266000D03*
D23*
G04 #@! TO.P,TERMINAL3,1*
G04 #@! TO.N,Net-(J8-Pad1)*
X176022000Y-96266000D03*
G04 #@! TD*
G04 #@! TO.P,TERMINAL4,1*
G04 #@! TO.N,Net-(J9-Pad1)*
X176022000Y-117602000D03*
D22*
G04 #@! TO.P,TERMINAL4,2*
G04 #@! TO.N,Net-(J9-Pad2)*
X176022000Y-122602000D03*
G04 #@! TO.P,TERMINAL4,3*
G04 #@! TO.N,Net-(J9-Pad3)*
X176022000Y-127602000D03*
G04 #@! TD*
D24*
G04 #@! TO.P,RELAY1,1*
G04 #@! TO.N,Net-(J5-Pad2)*
X163502000Y-58628000D03*
D25*
G04 #@! TO.P,RELAY1,5*
G04 #@! TO.N,Net-(C2.1-Pad1)*
X161552000Y-64578000D03*
D24*
G04 #@! TO.P,RELAY1,4*
G04 #@! TO.N,Net-(J5-Pad3)*
X149302000Y-64628000D03*
G04 #@! TO.P,RELAY1,3*
G04 #@! TO.N,Net-(J5-Pad1)*
X149352000Y-52578000D03*
D25*
G04 #@! TO.P,RELAY1,2*
G04 #@! TO.N,Net-(D1-Pad2)*
X161552000Y-52578000D03*
G04 #@! TD*
D24*
G04 #@! TO.P,RELAY2,1*
G04 #@! TO.N,Net-(J7-Pad2)*
X164592000Y-78486000D03*
D25*
G04 #@! TO.P,RELAY2,5*
G04 #@! TO.N,Net-(C2.1-Pad1)*
X162642000Y-84436000D03*
D24*
G04 #@! TO.P,RELAY2,4*
G04 #@! TO.N,Net-(J7-Pad3)*
X150392000Y-84486000D03*
G04 #@! TO.P,RELAY2,3*
G04 #@! TO.N,Net-(J7-Pad1)*
X150442000Y-72436000D03*
D25*
G04 #@! TO.P,RELAY2,2*
G04 #@! TO.N,Net-(D2-Pad2)*
X162642000Y-72436000D03*
G04 #@! TD*
G04 #@! TO.P,RELAY3,2*
G04 #@! TO.N,Net-(D3-Pad2)*
X162769000Y-95550000D03*
D24*
G04 #@! TO.P,RELAY3,3*
G04 #@! TO.N,Net-(J8-Pad1)*
X150569000Y-95550000D03*
G04 #@! TO.P,RELAY3,4*
G04 #@! TO.N,Net-(J8-Pad3)*
X150519000Y-107600000D03*
D25*
G04 #@! TO.P,RELAY3,5*
G04 #@! TO.N,Net-(C2.1-Pad1)*
X162769000Y-107550000D03*
D24*
G04 #@! TO.P,RELAY3,1*
G04 #@! TO.N,Net-(J8-Pad2)*
X164719000Y-101600000D03*
G04 #@! TD*
D25*
G04 #@! TO.P,RELAY4,2*
G04 #@! TO.N,Net-(D4-Pad2)*
X162896000Y-116378000D03*
D24*
G04 #@! TO.P,RELAY4,3*
G04 #@! TO.N,Net-(J9-Pad1)*
X150696000Y-116378000D03*
G04 #@! TO.P,RELAY4,4*
G04 #@! TO.N,Net-(J9-Pad3)*
X150646000Y-128428000D03*
D25*
G04 #@! TO.P,RELAY4,5*
G04 #@! TO.N,Net-(C2.1-Pad1)*
X162896000Y-128378000D03*
D24*
G04 #@! TO.P,RELAY4,1*
G04 #@! TO.N,Net-(J9-Pad2)*
X164846000Y-122428000D03*
G04 #@! TD*
D15*
G04 #@! TO.P,R11,1*
G04 #@! TO.N,Net-(R11-Pad1)*
X127000000Y-56515000D03*
D16*
G04 #@! TO.P,R11,2*
G04 #@! TO.N,Net-(Q1-Pad2)*
X127000000Y-59055000D03*
G04 #@! TD*
D15*
G04 #@! TO.P,R22,1*
G04 #@! TO.N,Net-(R11-Pad1)*
X127000000Y-79248000D03*
D16*
G04 #@! TO.P,R22,2*
G04 #@! TO.N,Net-(Q2-Pad2)*
X127000000Y-81788000D03*
G04 #@! TD*
G04 #@! TO.P,R33,2*
G04 #@! TO.N,Net-(Q3-Pad2)*
X127635000Y-102870000D03*
D15*
G04 #@! TO.P,R33,1*
G04 #@! TO.N,Net-(R33-Pad1)*
X127635000Y-100330000D03*
G04 #@! TD*
D16*
G04 #@! TO.P,R44,2*
G04 #@! TO.N,Net-(Q4-Pad2)*
X127762000Y-125222000D03*
D15*
G04 #@! TO.P,R44,1*
G04 #@! TO.N,Net-(R33-Pad1)*
X127762000Y-122682000D03*
G04 #@! TD*
D26*
G04 #@! TO.N,Net-(J1-Pad3)*
X113030000Y-119380000D03*
G04 #@! TO.N,Net-(MPU6050-Pad4)*
X100330000Y-73660000D03*
G04 #@! TO.N,Net-(MPU6050-Pad3)*
X97790000Y-73660000D03*
G04 #@! TO.N,Net-(R11-Pad1)*
X123190000Y-114300000D03*
G04 #@! TD*
D27*
G04 #@! TO.N,GND*
X99060000Y-95250000D02*
X104140000Y-95250000D01*
X82550000Y-78740000D02*
X99060000Y-95250000D01*
X96520000Y-48300000D02*
X95250000Y-49570000D01*
X96520000Y-41960800D02*
X96520000Y-48300000D01*
X95122170Y-41960800D02*
X96520000Y-41960800D01*
X95111370Y-41950000D02*
X95122170Y-41960800D01*
X93980000Y-41950000D02*
X95111370Y-41950000D01*
X105410000Y-42250000D02*
X107020000Y-40640000D01*
X105410000Y-44450000D02*
X105410000Y-42250000D01*
X116840000Y-43035773D02*
X116840000Y-43449990D01*
X114444227Y-40640000D02*
X116840000Y-43035773D01*
X107020000Y-40640000D02*
X114444227Y-40640000D01*
X106680000Y-52137919D02*
X106680000Y-53340000D01*
X106680000Y-47920000D02*
X106680000Y-52137919D01*
X105410000Y-46650000D02*
X106680000Y-47920000D01*
X105410000Y-44450000D02*
X105410000Y-46650000D01*
G04 #@! TO.N,Net-(BT1-Pad1)*
X92710000Y-52070000D02*
X95250000Y-52070000D01*
X92710000Y-46990000D02*
X92710000Y-52070000D01*
X91440000Y-45720000D02*
X92710000Y-46990000D01*
X83820000Y-45720000D02*
X91440000Y-45720000D01*
X83820000Y-43180000D02*
X83820000Y-45720000D01*
X96520000Y-53340000D02*
X95250000Y-52070000D01*
X104140000Y-53340000D02*
X96520000Y-53340000D01*
G04 #@! TO.N,Net-(BT2-Pad1)*
X132460000Y-43815000D02*
X130810000Y-43815000D01*
X135382000Y-46737000D02*
X132460000Y-43815000D01*
X135382000Y-49784000D02*
X135382000Y-46737000D01*
X139065000Y-46101000D02*
X135382000Y-49784000D01*
X139065000Y-43815000D02*
X139065000Y-46101000D01*
G04 #@! TO.N,Net-(BT2-Pad2)*
X123619750Y-49354250D02*
X125494897Y-49354250D01*
X123444000Y-49530000D02*
X123619750Y-49354250D01*
X123444000Y-61468000D02*
X123444000Y-49530000D01*
X133604000Y-61722000D02*
X123698000Y-61722000D01*
X123698000Y-61722000D02*
X123444000Y-61468000D01*
X137160000Y-107442000D02*
X133858000Y-104140000D01*
X137160000Y-124138081D02*
X137160000Y-107442000D01*
X134366000Y-125730000D02*
X135568081Y-125730000D01*
X135568081Y-125730000D02*
X137160000Y-124138081D01*
X130810000Y-85090000D02*
X133604000Y-82296000D01*
X130810000Y-102294081D02*
X130810000Y-85090000D01*
X133858000Y-104140000D02*
X132655919Y-104140000D01*
X132655919Y-104140000D02*
X130810000Y-102294081D01*
X133604000Y-82296000D02*
X130810000Y-82296000D01*
X132754001Y-62571999D02*
X132754001Y-69683999D01*
X133604000Y-61722000D02*
X132754001Y-62571999D01*
X132754001Y-69683999D02*
X130810000Y-71628000D01*
X130810000Y-71628000D02*
X130810000Y-82296000D01*
G04 #@! TO.N,Net-(.1-Pad2)*
X82550000Y-59690000D02*
X88900000Y-59690000D01*
X90170000Y-60960000D02*
X93980000Y-60960000D01*
X88900000Y-59690000D02*
X90170000Y-60960000D01*
X100710000Y-92710000D02*
X104140000Y-92710000D01*
X84200000Y-76200000D02*
X100710000Y-92710000D01*
X82550000Y-76200000D02*
X84200000Y-76200000D01*
X82550000Y-123190000D02*
X93980000Y-123190000D01*
X93980000Y-123190000D02*
X93980000Y-127000000D01*
X104140000Y-92710000D02*
X106680000Y-92710000D01*
X109220000Y-97790000D02*
X111760000Y-97790000D01*
X106680000Y-92710000D02*
X109220000Y-92710000D01*
X109220000Y-97790000D02*
X109220000Y-92710000D01*
X109220000Y-56515000D02*
X109220000Y-53340000D01*
X93980000Y-60960000D02*
X104775000Y-60960000D01*
X104775000Y-60960000D02*
X109220000Y-56515000D01*
G04 #@! TO.N,Net-(C2.1-Pad1)*
X127994897Y-52302897D02*
X127994897Y-49354250D01*
X128524000Y-52832000D02*
X127994897Y-52302897D01*
X134112000Y-52832000D02*
X128524000Y-52832000D01*
X140208000Y-64262000D02*
X140208000Y-58928000D01*
X140208000Y-58928000D02*
X134112000Y-52832000D01*
X142870000Y-128524000D02*
X140970000Y-128524000D01*
X144526000Y-126868000D02*
X142870000Y-128524000D01*
X144526000Y-108717000D02*
X144526000Y-126868000D01*
X142489000Y-106680000D02*
X144526000Y-108717000D01*
X142362000Y-84582000D02*
X143510000Y-85730000D01*
X140462000Y-84582000D02*
X142362000Y-84582000D01*
X143510000Y-85730000D02*
X143510000Y-104775000D01*
X142489000Y-106680000D02*
X140589000Y-106680000D01*
X143510000Y-105659000D02*
X142489000Y-106680000D01*
X143510000Y-104775000D02*
X143510000Y-105659000D01*
X142108000Y-64262000D02*
X143510000Y-65664000D01*
X140208000Y-64262000D02*
X142108000Y-64262000D01*
X140462000Y-82682000D02*
X140462000Y-84582000D01*
X143510000Y-79634000D02*
X140462000Y-82682000D01*
X143510000Y-65664000D02*
X143510000Y-79634000D01*
G04 #@! TO.N,Net-(J1-Pad3)*
X82550000Y-115570000D02*
X80010000Y-115570000D01*
X80010000Y-115570000D02*
X80010000Y-132080000D01*
X80010000Y-132080000D02*
X105410000Y-132080000D01*
X105410000Y-132080000D02*
X109220000Y-128270000D01*
X109220000Y-128270000D02*
X109220000Y-123190000D01*
X109220000Y-123190000D02*
X113030000Y-119380000D01*
X113030000Y-119380000D02*
X113030000Y-119380000D01*
G04 #@! TO.N,Net-(J3-Pad2)*
X121840000Y-44450000D02*
X120440001Y-45849999D01*
X120440001Y-45849999D02*
X120440001Y-45929999D01*
X120440001Y-45929999D02*
X116840000Y-49530000D01*
X116205000Y-102870000D02*
X111760000Y-102870000D01*
X116840000Y-49530000D02*
X116840000Y-102235000D01*
X116205000Y-102870000D02*
X116840000Y-102235000D01*
G04 #@! TO.N,Net-(J4-Pad2)*
X111760000Y-100330000D02*
X114300000Y-100330000D01*
X114300000Y-48340000D02*
X114300000Y-48895000D01*
X110410000Y-44450000D02*
X114300000Y-48340000D01*
X114300000Y-100330000D02*
X114300000Y-48895000D01*
X114300000Y-48895000D02*
X114300000Y-48260000D01*
G04 #@! TO.N,Net-(MPU6050-Pad4)*
X100330000Y-73660000D02*
X107950000Y-73660000D01*
X107950000Y-73660000D02*
X107950000Y-80010000D01*
X107950000Y-80010000D02*
X111760000Y-80010000D01*
G04 #@! TO.N,Net-(MPU6050-Pad3)*
X111760000Y-71120000D02*
X111760000Y-77470000D01*
X97790000Y-71120000D02*
X111760000Y-71120000D01*
X97790000Y-73660000D02*
X97790000Y-71120000D01*
G04 #@! TO.N,Net-(PortD1-Pad3)*
X82550000Y-97790000D02*
X88900000Y-97790000D01*
X88900000Y-97790000D02*
X91440000Y-100330000D01*
X91440000Y-100330000D02*
X99060000Y-100330000D01*
X99060000Y-100330000D02*
X101600000Y-102870000D01*
X101600000Y-102870000D02*
X104140000Y-102870000D01*
G04 #@! TO.N,Net-(PortD1-Pad4)*
X82550000Y-100330000D02*
X87630000Y-100330000D01*
X87630000Y-100330000D02*
X90170000Y-102870000D01*
X90170000Y-102870000D02*
X99060000Y-102870000D01*
X101600000Y-105410000D02*
X104140000Y-105410000D01*
X99060000Y-102870000D02*
X101600000Y-105410000D01*
G04 #@! TO.N,Net-(PortD1-Pad5)*
X100330000Y-107950000D02*
X104140000Y-107950000D01*
X99060000Y-105410000D02*
X100330000Y-106680000D01*
X100330000Y-106680000D02*
X100330000Y-107950000D01*
X88900000Y-105410000D02*
X99060000Y-105410000D01*
X86360000Y-102870000D02*
X88900000Y-105410000D01*
X82550000Y-102870000D02*
X86360000Y-102870000D01*
G04 #@! TO.N,Net-(R11-Pad1)*
X119380000Y-114300000D02*
X119380000Y-114300000D01*
X104140000Y-114300000D02*
X104140000Y-110490000D01*
X123190000Y-114300000D02*
X104140000Y-114300000D01*
G04 #@! TO.N,Net-(R33-Pad1)*
X127762000Y-111252000D02*
X127000000Y-110490000D01*
X127762000Y-122682000D02*
X127762000Y-111252000D01*
X123190000Y-103785051D02*
X123190000Y-110490000D01*
X126645051Y-100330000D02*
X123190000Y-103785051D01*
X127635000Y-100330000D02*
X126645051Y-100330000D01*
X111760000Y-110490000D02*
X123190000Y-110490000D01*
X123190000Y-110490000D02*
X127000000Y-110490000D01*
G04 #@! TO.N,Net-(.1-Pad3)*
X82550000Y-62230000D02*
X100330000Y-80010000D01*
X100330000Y-80010000D02*
X104140000Y-80010000D01*
G04 #@! TO.N,Net-(.1-Pad4)*
X100330000Y-82550000D02*
X104140000Y-82550000D01*
X82550000Y-64770000D02*
X100330000Y-82550000D01*
G04 #@! TD*
M02*
