M48
;DRILL file {KiCad (5.0.0)} date 01/04/19 13:23:41
;FORMAT={-:-/ absolute / metric / decimal}
FMAT,2
METRIC,TZ
T1C0.700
T2C0.800
T3C1.000
T4C1.100
T5C1.300
T6C1.400
%
G90
G05
M71
T1
X97.79Y-73.66
X100.33Y-73.66
X113.03Y-119.38
X123.19Y-114.3
X127.Y-79.248
X127.Y-81.788
X127.Y-56.515
X127.Y-59.055
X127.762Y-122.682
X127.762Y-125.222
X93.98Y-58.42
X93.98Y-60.96
X127.635Y-100.33
X127.635Y-102.87
T2
X125.495Y-49.354
X127.995Y-49.354
X93.98Y-41.95
X93.98Y-44.45
X91.44Y-114.34
X91.44Y-116.84
X104.14Y-77.47
X104.14Y-80.01
X104.14Y-82.55
X104.14Y-85.09
X104.14Y-87.63
X104.14Y-90.17
X104.14Y-92.71
X104.14Y-95.25
X104.14Y-97.79
X104.14Y-100.33
X104.14Y-102.87
X104.14Y-105.41
X104.14Y-107.95
X104.14Y-110.49
X111.76Y-77.47
X111.76Y-80.01
X111.76Y-82.55
X111.76Y-85.09
X111.76Y-87.63
X111.76Y-90.17
X111.76Y-92.71
X111.76Y-95.25
X111.76Y-97.79
X111.76Y-100.33
X111.76Y-102.87
X111.76Y-105.41
X111.76Y-107.95
X111.76Y-110.49
X91.44Y-107.95
X96.34Y-107.95
X95.25Y-49.57
X95.25Y-52.07
X132.882Y-49.784
X135.382Y-49.784
X82.55Y-50.8
X90.17Y-50.8
X96.52Y-114.34
X96.52Y-116.84
T3
X133.604Y-56.642
X133.604Y-59.182
X133.604Y-61.722
X139.065Y-43.815
X141.605Y-43.815
X144.145Y-43.815
X82.55Y-92.71
X82.55Y-95.25
X82.55Y-97.79
X82.55Y-100.33
X82.55Y-102.87
X133.858Y-99.06
X133.858Y-101.6
X133.858Y-104.14
X82.55Y-76.2
X82.55Y-78.74
X82.55Y-81.28
X82.55Y-83.82
X82.55Y-86.36
X162.769Y-95.55
X162.769Y-107.55
X82.55Y-110.49
X82.55Y-113.03
X82.55Y-115.57
X82.55Y-57.15
X82.55Y-59.69
X82.55Y-62.23
X82.55Y-64.77
X82.55Y-67.31
X133.604Y-77.216
X133.604Y-79.756
X133.604Y-82.296
X119.38Y-82.55
X119.38Y-85.09
X162.642Y-72.436
X162.642Y-84.436
X162.896Y-116.378
X162.896Y-128.378
X134.366Y-120.65
X134.366Y-123.19
X134.366Y-125.73
X128.27Y-43.815
X130.81Y-43.815
X82.55Y-123.19
X82.55Y-125.73
X82.55Y-128.27
X91.44Y-127.
X93.98Y-127.
X96.52Y-127.
X99.06Y-127.
X101.6Y-127.
X104.14Y-127.
X83.82Y-43.18
X86.36Y-43.18
X161.552Y-52.578
X161.552Y-64.578
X104.14Y-53.34
X106.68Y-53.34
X109.22Y-53.34
T4
X140.589Y-96.52
X140.589Y-106.68
X140.462Y-74.422
X140.462Y-84.582
X140.97Y-118.364
X140.97Y-128.524
X140.208Y-54.102
X140.208Y-64.262
T5
X150.392Y-84.486
X150.442Y-72.436
X164.592Y-78.486
X150.646Y-128.428
X150.696Y-116.378
X164.846Y-122.428
X176.022Y-96.266
X176.022Y-101.266
X176.022Y-106.266
X176.022Y-73.914
X176.022Y-78.914
X176.022Y-83.914
X149.302Y-64.628
X149.352Y-52.578
X163.502Y-58.628
X176.022Y-53.34
X176.022Y-58.34
X176.022Y-63.34
X150.519Y-107.6
X150.569Y-95.55
X164.719Y-101.6
X176.022Y-117.602
X176.022Y-122.602
X176.022Y-127.602
T6
X116.84Y-44.45
X121.84Y-44.45
X105.41Y-44.45
X110.41Y-44.45
T0
M30
